<svg xmlns="http://www.w3.org/2000/svg" width="256" height="256"><path fill-opacity=".016" d="M0 128.004v128.004l128.25-.254 128.25-.254.254-127.75L257.008 0H0v128.004m.485.496c0 70.4.119 99.053.265 63.672.146-35.38.146-92.98 0-128C.604 29.153.485 58.1.485 128.5" fill="#1976D2" fill-rule="evenodd"/><path fill-opacity=".219" d="M43 4.563C19.681 9.599 2.971 30.449 3.012 54.46c.022 13.01 4.442 24.299 13.35 34.096 19.306 21.232 52.568 22.058 73.136 1.816 15.774-15.523 19.642-38.77 9.823-59.028-3.825-7.892-14.103-18.212-22.199-22.29C70.258 5.597 59.947 2.997 53.5 3.097c-2.2.034-6.925.694-10.5 1.466m146.691-.062c-19.36 5.322-34.611 22.3-37.727 41.999-3.813 24.103 10.744 47.967 34.32 56.263 9.833 3.46 22.343 3.607 31.906.375 36.857-12.457 47.866-57.762 20.65-84.978-10.188-10.188-22.524-15.24-36.8-15.071-4.147.05-9.704.685-12.349 1.412M109.56 25.613c-4.367.788-8.084 1.577-8.26 1.754-.176.176.467 2.443 1.428 5.038l1.749 4.717 5.011-.811c6.484-1.049 30.549-1.048 37.041.002l5.03.814 2.127-4.624 2.127-4.624-2.174-.826c-8.196-3.116-30.718-3.852-44.079-1.44M116 79.591c-12.362 3.282-24.197 11.808-30.909 22.267-14.445 22.51-8.5 53.045 13.363 68.647 8.962 6.395 15.935 8.726 27.741 9.273 7.868.365 10.978.06 16.5-1.622 21.705-6.611 36.348-26.19 36.281-48.511-.031-10.087-1.199-15.313-5.286-23.645-10.032-20.45-35.762-32.229-57.69-26.409m-89.455 22.336c-.275.444-1.235 5.03-2.134 10.191-1.795 10.303-1.533 28.287.547 37.514l1.157 5.131 4.692-1.799 4.693-1.799-.5-4.332c-.275-2.383-.5-10.183-.5-17.333 0-7.15.225-15.6.5-18.777l.5-5.777-4.227-1.914c-2.326-1.053-4.453-1.55-4.728-1.105m197.647 1.36c-3.453 1.734-4.196 2.565-3.743 4.188 2.024 7.261 2.85 22.109 1.751 31.476-.642 5.473-1.287 10.452-1.434 11.065-.288 1.206 9.002 5.213 9.596 4.138 2.191-3.964 3.672-23.304 2.626-34.282-.966-10.138-2.766-18.917-3.857-18.81-.347.034-2.57 1.035-4.939 2.225M43.763 152.033c-20.973 3.531-36.921 18.12-42.274 38.67-6.444 24.74 8.095 51.146 33.182 60.264 5.421 1.971 7.674 2.2 18.553 1.888 12.01-.344 12.617-.47 20.103-4.171 12.893-6.374 22.709-17.598 26.709-30.539 2.344-7.584 2.614-21.116.574-28.777-4.939-18.549-22.493-34.294-41.61-37.323-7.255-1.149-8.477-1.15-15.237-.012m150.648.451c-18.983 4.13-35.391 20.542-39.306 39.315-2.594 12.44-.344 26.228 6 36.765 4.63 7.689 14.412 16.609 22.608 20.617 6.739 3.295 6.89 3.319 21.335 3.319h14.548l7.522-3.716c13.338-6.588 22.81-17.335 26.873-30.489 2.921-9.459 2.755-23.563-.383-32.452-6.056-17.156-20.217-29.536-38.125-33.329-8.397-1.779-13.006-1.785-21.072-.03m-94.429 72.289c-1.081 2.444-1.747 4.798-1.48 5.231 1.046 1.691 19.258 4.159 30.424 4.122 10.978-.036 17.543-.829 26.231-3.168l3.838-1.034-2.452-4.839-2.452-4.838-6.295 1.559c-8.054 1.994-30.768 1.97-39.572-.043l-6.276-1.435-1.966 4.445" fill="#1976D2" fill-rule="evenodd"/><path fill-opacity=".316" d="M190.634 4.519c-17.266 4.377-32.095 18.555-37.041 35.413-2.069 7.054-2.068 21.087.002 28.136 2.655 9.038 7.301 16.606 14.102 22.967 11.252 10.526 21.877 14.451 37.19 13.74 11.718-.544 18.718-2.89 27.659-9.27 15.994-11.413 24.146-31.69 20.273-50.422-3.859-18.664-15.623-32.438-33.319-39.014-7.789-2.895-20.805-3.593-28.866-1.55m-75.097 20.564c-3.83.525-8.612 1.399-10.627 1.941l-3.663.986 2.081 4.524c1.429 3.105 2.536 4.348 3.534 3.965.799-.306 5.882-1.077 11.295-1.712 9.251-1.085 24.151-.248 31.357 1.761 1.663.464 2.306-.227 3.693-3.969.924-2.492 1.368-4.724.986-4.959-3.705-2.286-28.585-3.919-38.656-2.537m2.766 55.235c-.278.45-1.08.598-1.782.328-.703-.269-1.679-.088-2.171.404-.491.491-1.783 1.054-2.871 1.251-2.56.463-9.88 3.976-10.312 4.949-.184.412-.863.75-1.51.75s-1.765.944-2.486 2.097c-.72 1.154-1.579 1.828-1.909 1.498C94.427 90.76 91 94.017 91 95.647c0 .735-.9 1.898-2 2.585s-2 1.778-2 2.425c0 .647-.338 1.326-.75 1.51-.673.299-4.332 7.211-4.809 9.083-.105.412-.303.975-.441 1.25s-.362.95-.5 1.5-.358 1.338-.49 1.75c-.133.412-.345 1.2-.473 1.75a40.76 40.76 0 01-.45 1.75c-.53 1.827-.284 18.622.286 19.544.348.564.359 1.741.023 2.616-.351.915-.095 1.59.604 1.59.668 0 .966.646.663 1.435-.303.79-.106 1.584.438 1.765.543.181 1.064 1.335 1.156 2.565.093 1.229.549 2.235 1.015 2.235.465 0 .568.45.228 1-.34.55-.115 1 .5 1s.84.45.5 1c-.34.55-.141 1 .441 1s1.059.627 1.059 1.393.679 1.654 1.509 1.972c.83.319 1.421.929 1.312 1.357-.272 1.069 7.842 9.278 9.17 9.278.59 0 1.33.672 1.645 1.494.316.822.976 1.246 1.469.941.492-.304.895-.175.895.287 0 .863 5.909 3.642 7.25 3.408.412-.071.75.306.75.839 0 .532.675.709 1.5.393.825-.317 1.5-.051 1.5.59s.47.876 1.044.521c.574-.355 1.642-.149 2.373.458.731.607 2.067.82 2.969.474.902-.346 2.296-.084 3.098.582 1.728 1.434 14.405.436 17.316-1.364.66-.407 1.619-.482 2.131-.166.512.317 1.218.111 1.569-.457.351-.568 1.026-.793 1.5-.5.474.293 1.149.068 1.5-.5.351-.568 1.057-.774 1.569-.457.512.316.931.072.931-.543s.45-.84 1-.5c.55.34 1 .066 1-.608 0-.674.273-.952.606-.619.334.334 1.544-.266 2.689-1.333s2.624-1.94 3.287-1.94c.662 0 1.466-.682 1.785-1.515.32-.833 1.718-1.947 3.107-2.475 1.389-.528 2.526-1.636 2.526-2.462 0-.826 1.121-2.236 2.491-3.134 1.371-.898 2.286-1.965 2.035-2.372-.251-.406.401-1.659 1.448-2.784 1.048-1.125 1.633-2.318 1.299-2.652-.333-.333-.055-.606.619-.606s.948-.45.608-1c-.34-.55-.115-1 .5-1s.859-.419.543-.931c-.317-.512-.111-1.218.457-1.569.568-.351.793-1.026.5-1.5-.293-.474-.095-1.132.44-1.463.535-.331.719-1.262.409-2.069-.309-.807-.129-1.468.4-1.468 2.043 0 1.934-20.468-.126-23.8-.407-.66-.463-1.65-.123-2.2.34-.55.093-1-.548-1s-.918-.646-.615-1.435c.303-.79.238-1.577-.143-1.75-.69-.313-4.429-7.859-4.368-8.815.018-.275-.611-.86-1.397-1.3-.786-.44-1.429-1.174-1.429-1.632 0-1.191-8.346-9.527-9.278-9.267-.428.12-1.038-.462-1.357-1.292-.318-.83-1.206-1.509-1.972-1.509S154 86.523 154 85.941s-.45-.781-1-.441-1 .115-1-.5-.45-.84-1-.5c-.55.34-1 .115-1-.5s-.45-.84-1-.5c-.55.34-1 .115-1-.5s-.419-.859-.931-.543c-.512.317-1.201.138-1.532-.397-.331-.535-1.262-.719-2.069-.409-.807.309-1.468.079-1.468-.513 0-.591-.653-.824-1.452-.518-.799.306-1.993.223-2.653-.185-1.657-1.024-18.968-1.127-19.592-.117m-92.208 25.348c-3.107 11.591-3.457 27.447-.931 42.143.896 5.209 1.368 6.194 2.71 5.648.894-.364 2.916-1.128 4.493-1.698 2.739-.99 2.838-1.242 2.225-5.648-1.953-14.043-1.577-28.024 1.043-38.736.403-1.652-.111-2.353-2.308-3.148a158.872 158.872 0 01-4.516-1.708c-1.332-.541-1.906.124-2.716 3.147m198.068-1.879l-3.338 1.659.838 5.527c1.022 6.75 1.101 28.817.125 35.14l-.712 4.613 4.1 1.611c2.255.886 4.441 1.4 4.858 1.142.417-.258 1.314-4.383 1.993-9.168 2.003-14.115-.285-42.427-3.415-42.247-.612.035-2.614.81-4.449 1.723M38.112 153.581C19.008 158.718 3.877 176.042.911 196.172c-2.985 20.254 8.734 42.472 27.194 51.559 8.202 4.037 13.47 5.214 23.463 5.245 14.258.043 25.233-4.553 35.499-14.866 7.057-7.091 10.911-13.868 13.403-23.57 6.794-26.461-9.916-54.066-36.93-61.008-7.363-1.893-18.288-1.872-25.428.049m150.775.796c-13.413 4.735-23.051 13.289-29.433 26.123-12.492 25.122-1.544 55.981 24.214 68.251 7.332 3.493 8.543 3.755 18.967 4.095 17.139.558 28.061-3.5 38.806-14.418 15.434-15.682 19.041-39.713 8.951-59.637-5.618-11.095-18.445-21.413-31.324-25.196-8.334-2.448-22.038-2.093-30.181.782m-88.646 71.064l-2.158 4.441 7.709 1.809c10.712 2.514 33.724 2.509 44.458-.009 4.262-1 7.75-1.997 7.75-2.216 0-.321-2.962-7.106-3.613-8.275-.094-.17-3.87.393-8.39 1.25-10.392 1.971-25.535 1.997-35.659.059-4.311-.825-7.861-1.5-7.889-1.5-.028 0-1.021 1.998-2.208 4.441" fill="#1976D2" fill-rule="evenodd"/><path fill-opacity=".62" d="M194 4.136c-8.65 1.418-19.27 6.997-26.457 13.898-28.665 27.526-15.705 75.354 23.16 85.477 25.698 6.693 53.009-9.253 60.702-35.443 2.278-7.756 2.088-21.263-.414-29.363C245.676 21.497 230.93 8.398 212.5 4.511c-7.773-1.639-10.459-1.694-18.5-.375m-.652 149.284c-17.484 4.241-31.725 18.144-36.882 36.009-2.362 8.18-1.628 23.846 1.477 31.55 7.881 19.551 26.162 31.976 47.097 32.009 27.124.043 48.609-19.864 50.608-46.891 2.493-33.705-29.387-60.661-62.3-52.677" fill="#1976D2" fill-rule="evenodd"/></svg>